<?xml version="1.0" encoding="UTF-8"?>
<svg width="32" height="32" version="1.1" viewBox="0 0 8.4667 8.4667" xmlns="http://www.w3.org/2000/svg">
 <g transform="scale(1.0004 .99958)" fill="#9556cf" stroke="#441267" stroke-linecap="round" stroke-width=".265" style="paint-order:stroke fill markers" aria-label="[dt]">
  <path d="m0.45533 6.9665h1.0741c0.14792 0 0.2251-0.15461 0.2251-0.29633 0-0.16749-0.083609-0.30921-0.2251-0.30921h-0.6946v-4.2517h0.6946c0.14149 0 0.2251-0.14172 0.2251-0.30921 0-0.14172-0.077178-0.29633-0.2251-0.29633h-1.0741c-0.15436 0-0.30228 0.083744-0.30228 0.22547v5.0118c0 0.14816 0.14792 0.22547 0.30228 0.22547z"/>
  <path d="m2.8145 6.0496c0.36016 0 0.66244-0.1997 0.85539-0.50247v0.24479c0 0.10951 0.14149 0.21902 0.31514 0.21902 0.18008 0 0.30871-0.11595 0.30871-0.23191v-4.0523c0-0.12884-0.13506-0.21902-0.33444-0.21902-0.18651 0-0.34087 0.090186-0.34087 0.21902v1.4433c-0.18651-0.25768-0.46307-0.41872-0.80393-0.41872-0.6753 0-1.177 0.56044-1.177 1.2562v0.77303c0 0.66996 0.50166 1.2691 1.177 1.2691zm0.15436-0.5991c-0.37946 0-0.65601-0.31565-0.65601-0.66996v-0.77303c0-0.34142 0.27655-0.65707 0.65601-0.65707 0.37946 0 0.64958 0.31565 0.64958 0.65707v0.77303c0 0.3543-0.27012 0.66996-0.64958 0.66996z"/>
  <path d="m6.5465 5.4311h-0.15436c-0.35373 0-0.4502-0.18037-0.4502-0.65707v-1.4494h0.62385c0.14792 0 0.2251-0.13528 0.2251-0.27056 0-0.12884-0.077175-0.26412-0.2251-0.26412h-0.62385v-1.0342c0-0.16105-0.17365-0.25123-0.33444-0.25123-0.16079 0-0.34087 0.090186-0.34087 0.25123v1.0342h-0.32157c-0.14149 0-0.2251 0.13528-0.2251 0.26412 0 0.13528 0.08361 0.27056 0.2251 0.27056h0.32157v1.4881c0 0.8761 0.28942 1.1982 0.92613 1.1982h0.30871c0.16722 0 0.28942-0.11595 0.28942-0.30921 0-0.16105-0.08361-0.27056-0.2444-0.27056z"/>
  <path d="m6.9488 6.9665h1.0805c0.14792 0 0.30228-0.077302 0.30228-0.22547v-5.0118c0-0.14172-0.14792-0.22547-0.30228-0.22547h-1.0805c-0.14792 0-0.2251 0.15461-0.2251 0.29633 0 0.16749 0.090042 0.30921 0.2251 0.30921h0.70103v4.2517h-0.70103c-0.13506 0-0.2251 0.14172-0.2251 0.30921 0 0.14172 0.07718 0.29633 0.2251 0.29633z"/>
 </g>
</svg>
